<svg width="201" height="14" viewBox="0 0 201 14" fill="none" xmlns="http://www.w3.org/2000/svg">
<path d="M9.00101 6.52L12.727 13H7.93901L5.52701 8.446H4.33901V13H0.0910078V0.399999H4.33901V5.098H5.63501L8.31701 0.399999H12.745L9.00101 6.52ZM22.134 10.804H17.346L16.5 13H12.18L17.688 0.399999H21.864L27.372 13H22.98L22.134 10.804ZM20.964 7.744L19.74 4.576L18.516 7.744H20.964ZM28.5349 0.399999H39.4609V3.604H32.7109V5.062H35.7169C37.2529 5.062 38.4289 5.392 39.2449 6.052C40.0729 6.7 40.4869 7.642 40.4869 8.878C40.4869 10.162 40.0189 11.17 39.0829 11.902C38.1469 12.634 36.8449 13 35.1769 13H28.5349V0.399999ZM34.8889 10.03C35.3089 10.03 35.6329 9.94 35.8609 9.76C36.1009 9.58 36.2209 9.322 36.2209 8.986C36.2209 8.338 35.7769 8.014 34.8889 8.014H32.7109V10.03H34.8889ZM52.4231 9.796V13H41.9471V0.399999H52.1891V3.604H46.1231V5.08H51.4511V8.14H46.1231V9.796H52.4231ZM66.4403 0.399999V13H62.2643V3.694H59.3843L59.3483 5.152C59.3003 6.952 59.1563 8.428 58.9163 9.58C58.6763 10.732 58.2563 11.632 57.6563 12.28C57.0563 12.916 56.1983 13.234 55.0823 13.234C54.5183 13.234 53.9183 13.156 53.2823 13L53.4983 9.598C53.6543 9.634 53.8103 9.652 53.9663 9.652C54.4103 9.652 54.7463 9.472 54.9743 9.112C55.2143 8.752 55.3763 8.272 55.4603 7.672C55.5443 7.072 55.6043 6.286 55.6403 5.314L55.8023 0.399999H66.4403ZM75.4518 4.27C77.0238 4.27 78.2358 4.624 79.0878 5.332C79.9398 6.028 80.3658 7.06 80.3658 8.428C80.3658 9.904 79.8798 11.038 78.9078 11.83C77.9358 12.61 76.6038 13 74.9118 13H68.6658V0.399999H72.8418V4.27H75.4518ZM74.6238 10.03C75.0558 10.03 75.4098 9.898 75.6858 9.634C75.9618 9.358 76.0998 8.98 76.0998 8.5C76.0998 7.66 75.6078 7.24 74.6238 7.24H72.8418V10.03H74.6238ZM94.2518 0.399999V13H90.0038V8.356H86.0798V13H81.8318V0.399999H86.0798V4.864H90.0038V0.399999H94.2518ZM103.278 4.27C104.85 4.27 106.062 4.624 106.914 5.332C107.766 6.028 108.192 7.06 108.192 8.428C108.192 9.904 107.706 11.038 106.734 11.83C105.762 12.61 104.43 13 102.738 13H96.492V0.399999H100.668V4.27H103.278ZM102.45 10.03C102.882 10.03 103.236 9.898 103.512 9.634C103.788 9.358 103.926 8.98 103.926 8.5C103.926 7.66 103.434 7.24 102.45 7.24H100.668V10.03H102.45ZM109.344 0.399999H113.52V13H109.344V0.399999ZM126.234 9.796V13H115.758V0.399999H126V3.604H119.934V5.08H125.262V8.14H119.934V9.796H126.234Z" fill="#272727"/>
<path d="M145.647 0.399999V13H141.471V3.694H138.591L138.555 5.152C138.507 6.952 138.363 8.428 138.123 9.58C137.883 10.732 137.463 11.632 136.863 12.28C136.263 12.916 135.405 13.234 134.289 13.234C133.725 13.234 133.125 13.156 132.489 13L132.705 9.598C132.861 9.634 133.017 9.652 133.173 9.652C133.617 9.652 133.953 9.472 134.181 9.112C134.421 8.752 134.583 8.272 134.667 7.672C134.751 7.072 134.811 6.286 134.847 5.314L135.009 0.399999H145.647ZM154.281 13.288C152.925 13.288 151.707 13.006 150.627 12.442C149.547 11.878 148.701 11.098 148.089 10.102C147.477 9.094 147.171 7.96 147.171 6.7C147.171 5.44 147.477 4.312 148.089 3.316C148.701 2.308 149.547 1.522 150.627 0.957999C151.707 0.394 152.925 0.112 154.281 0.112C155.637 0.112 156.855 0.394 157.935 0.957999C159.015 1.522 159.861 2.308 160.473 3.316C161.085 4.312 161.391 5.44 161.391 6.7C161.391 7.96 161.085 9.094 160.473 10.102C159.861 11.098 159.015 11.878 157.935 12.442C156.855 13.006 155.637 13.288 154.281 13.288ZM154.281 9.85C154.809 9.85 155.283 9.724 155.703 9.472C156.135 9.208 156.477 8.842 156.729 8.374C156.981 7.894 157.107 7.336 157.107 6.7C157.107 6.064 156.981 5.512 156.729 5.044C156.477 4.564 156.135 4.198 155.703 3.946C155.283 3.682 154.809 3.55 154.281 3.55C153.753 3.55 153.273 3.682 152.841 3.946C152.421 4.198 152.085 4.564 151.833 5.044C151.581 5.512 151.455 6.064 151.455 6.7C151.455 7.336 151.581 7.894 151.833 8.374C152.085 8.842 152.421 9.208 152.841 9.472C153.273 9.724 153.753 9.85 154.281 9.85ZM173.472 3.694H169.782V13H165.606V3.694H161.916V0.399999H173.472V3.694ZM183.675 6.52L187.401 13H182.613L180.201 8.446H179.013V13H174.765V0.399999H179.013V5.098H180.309L182.991 0.399999H187.419L183.675 6.52ZM188.285 0.399999H192.461V6.952L196.799 0.399999H200.795V13H196.619V6.466L192.299 13H188.285V0.399999Z" fill="#FDDA07"/>
</svg>
